<svg width="1600" height="2000" viewBox="0 0 1600 2000" fill="none" xmlns="http://www.w3.org/2000/svg">
<rect x="50" y="50" width="1500" height="1900" rx="58" fill="#2D2D31"/>
<mask id="path-2-inside-1_855_10686" fill="white">
<path fill-rule="evenodd" clip-rule="evenodd" d="M169.928 1000C169.928 830.699 217.056 584.002 480.199 584.002C710.399 584.002 835.924 793.775 924.195 941.291C936.827 962.402 948.696 982.237 960 1000H949.405C943.136 994.009 937.009 988.148 931.016 982.414C762.801 821.5 699.939 761.366 576.942 761.366C357.656 761.366 236.036 1000 236.036 1000H169.928ZM169.928 1000C169.928 1169.3 217.056 1416 480.199 1416C710.399 1416 835.924 1206.22 924.195 1058.71C936.827 1037.6 948.696 1017.76 960 1000H949.405C943.136 1005.99 937.009 1011.85 931.016 1017.59C762.801 1178.5 699.939 1238.63 576.942 1238.63C357.656 1238.63 236.036 1000 236.036 1000H169.928Z"/>
</mask>
<path fill-rule="evenodd" clip-rule="evenodd" d="M169.928 1000C169.928 830.699 217.056 584.002 480.199 584.002C710.399 584.002 835.924 793.775 924.195 941.291C936.827 962.402 948.696 982.237 960 1000H949.405C943.136 994.009 937.009 988.148 931.016 982.414C762.801 821.5 699.939 761.366 576.942 761.366C357.656 761.366 236.036 1000 236.036 1000H169.928ZM169.928 1000C169.928 1169.3 217.056 1416 480.199 1416C710.399 1416 835.924 1206.22 924.195 1058.71C936.827 1037.6 948.696 1017.76 960 1000H949.405C943.136 1005.99 937.009 1011.85 931.016 1017.59C762.801 1178.5 699.939 1238.63 576.942 1238.63C357.656 1238.63 236.036 1000 236.036 1000H169.928Z" fill="white" fill-opacity="0.8"/>
<path d="M169.928 1000H168.928V1001H169.928V1000ZM924.195 941.291L923.337 941.805L923.337 941.805L924.195 941.291ZM960 1000V1001H961.822L960.844 999.463L960 1000ZM949.405 1000L948.714 1000.72L949.004 1001H949.405V1000ZM931.016 982.414L931.707 981.692L931.707 981.692L931.016 982.414ZM236.036 1000V1001H236.648L236.927 1000.45L236.036 1000ZM169.928 1000V999H168.928V1000H169.928ZM924.195 1058.71L923.337 1058.19L923.337 1058.19L924.195 1058.71ZM960 1000L960.844 1000.54L961.822 999H960V1000ZM949.405 1000V999H949.004L948.714 999.277L949.405 1000ZM931.016 1017.59L930.324 1016.86L930.324 1016.86L931.016 1017.59ZM236.036 1000L236.927 999.546L236.648 999H236.036V1000ZM480.199 583.002C414.251 583.002 361.778 598.461 320.177 624.345C278.58 650.227 247.908 686.497 225.505 728.039C180.713 811.092 168.928 915.289 168.928 1000H170.928C170.928 915.41 182.707 811.608 227.265 728.988C249.536 687.692 279.986 651.707 321.234 626.043C362.479 600.381 414.576 585.002 480.199 585.002V583.002ZM925.053 940.778C880.928 867.036 827.419 777.605 756.126 706.62C684.812 635.614 595.641 583.002 480.199 583.002V585.002C594.957 585.002 683.648 637.278 754.715 708.037C825.802 778.817 879.191 868.03 923.337 941.805L925.053 940.778ZM960.844 999.463C949.549 981.714 937.687 961.891 925.053 940.778L923.337 941.805C935.967 962.912 947.844 982.76 959.157 1000.54L960.844 999.463ZM949.405 1001H960V999H949.405V1001ZM930.324 983.137C936.318 988.87 942.445 994.732 948.714 1000.72L950.096 999.277C943.827 993.286 937.7 987.425 931.707 981.692L930.324 983.137ZM576.942 762.366C638.228 762.366 684.5 777.333 736.463 812.376C788.492 847.465 846.19 902.654 930.324 983.137L931.707 981.692C847.627 901.26 789.786 845.925 737.581 810.718C685.31 775.466 638.652 760.366 576.942 760.366V762.366ZM236.036 1000C236.927 1000.45 236.927 1000.45 236.928 1000.45C236.929 1000.45 236.93 1000.45 236.931 1000.44C236.935 1000.44 236.94 1000.43 236.948 1000.41C236.962 1000.39 236.984 1000.34 237.013 1000.29C237.071 1000.17 237.159 1000 237.277 999.78C237.512 999.332 237.865 998.666 238.335 997.795C239.275 996.055 240.684 993.499 242.557 990.245C246.301 983.736 251.898 974.432 259.299 963.266C274.102 940.931 296.12 911.153 324.975 881.379C382.698 821.815 467.682 762.366 576.942 762.366V760.366C466.916 760.366 381.447 820.233 323.539 879.987C294.578 909.871 272.485 939.752 257.632 962.161C250.205 973.366 244.586 982.706 240.823 989.247C238.941 992.518 237.524 995.089 236.575 996.845C236.101 997.722 235.744 998.396 235.506 998.851C235.386 999.078 235.296 999.251 235.236 999.368C235.206 999.426 235.183 999.47 235.168 999.5C235.161 999.515 235.155 999.526 235.151 999.534C235.149 999.538 235.147 999.541 235.146 999.542C235.145 999.545 235.145 999.546 236.036 1000ZM169.928 1001H236.036V999H169.928V1001ZM480.199 1415C414.576 1415 362.479 1399.62 321.234 1373.96C279.986 1348.29 249.536 1312.31 227.265 1271.01C182.707 1188.39 170.928 1084.59 170.928 1000H168.928C168.928 1084.71 180.713 1188.91 225.505 1271.96C247.908 1313.5 278.58 1349.77 320.177 1375.65C361.778 1401.54 414.251 1417 480.199 1417V1415ZM923.337 1058.19C879.191 1131.97 825.802 1221.18 754.715 1291.96C683.648 1362.72 594.957 1415 480.199 1415V1417C595.641 1417 684.812 1364.39 756.126 1293.38C827.419 1222.4 880.928 1132.96 925.053 1059.22L923.337 1058.19ZM959.157 999.463C947.844 1017.24 935.967 1037.09 923.337 1058.19L925.053 1059.22C937.687 1038.11 949.549 1018.29 960.844 1000.54L959.157 999.463ZM949.405 1001H960V999H949.405V1001ZM931.707 1018.31C937.7 1012.57 943.827 1006.71 950.096 1000.72L948.714 999.277C942.445 1005.27 936.318 1011.13 930.324 1016.86L931.707 1018.31ZM576.942 1239.63C638.652 1239.63 685.31 1224.53 737.581 1189.28C789.786 1154.07 847.627 1098.74 931.707 1018.31L930.324 1016.86C846.19 1097.35 788.492 1152.53 736.463 1187.62C684.5 1222.67 638.228 1237.63 576.942 1237.63V1239.63ZM236.036 1000C235.145 1000.45 235.145 1000.46 235.146 1000.46C235.147 1000.46 235.149 1000.46 235.151 1000.47C235.155 1000.47 235.161 1000.49 235.168 1000.5C235.183 1000.53 235.206 1000.57 235.236 1000.63C235.296 1000.75 235.386 1000.92 235.506 1001.15C235.744 1001.6 236.101 1002.28 236.575 1003.16C237.524 1004.91 238.941 1007.48 240.823 1010.75C244.586 1017.29 250.205 1026.63 257.632 1037.84C272.485 1060.25 294.578 1090.13 323.539 1120.01C381.447 1179.77 466.916 1239.63 576.942 1239.63V1237.63C467.682 1237.63 382.698 1178.18 324.975 1118.62C296.12 1088.85 274.102 1059.07 259.299 1036.73C251.898 1025.57 246.301 1016.26 242.557 1009.76C240.684 1006.5 239.275 1003.95 238.335 1002.2C237.865 1001.33 237.512 1000.67 237.277 1000.22C237.159 999.996 237.071 999.827 237.013 999.714C236.984 999.657 236.962 999.615 236.948 999.587C236.94 999.573 236.935 999.562 236.931 999.556C236.93 999.552 236.929 999.55 236.928 999.548C236.927 999.547 236.927 999.546 236.036 1000ZM169.928 1001H236.036V999H169.928V1001Z" fill="white" mask="url(#path-2-inside-1_855_10686)"/>
<mask id="path-4-inside-2_855_10686" fill="white">
<path fill-rule="evenodd" clip-rule="evenodd" d="M1430.07 1000C1430.07 1169.3 1382.94 1416 1119.8 1416C889.602 1416 764.077 1206.22 675.805 1058.71C663.173 1037.6 651.304 1017.76 640 1000L650.596 1000C656.864 1005.99 662.991 1011.85 668.985 1017.59C837.199 1178.5 900.062 1238.63 1023.06 1238.63C1242.34 1238.63 1363.96 1000 1363.96 1000L1430.07 1000ZM1430.07 1000C1430.07 830.699 1382.94 584.003 1119.8 584.002C889.602 584.002 764.077 793.775 675.805 941.292C663.173 962.402 651.304 982.237 640 1000L650.596 1000C656.864 994.009 662.991 988.148 668.985 982.414C837.199 821.5 900.062 761.366 1023.06 761.366C1242.34 761.366 1363.96 1000 1363.96 1000L1430.07 1000Z"/>
</mask>
<path fill-rule="evenodd" clip-rule="evenodd" d="M1430.07 1000C1430.07 1169.3 1382.94 1416 1119.8 1416C889.602 1416 764.077 1206.22 675.805 1058.71C663.173 1037.6 651.304 1017.76 640 1000L650.596 1000C656.864 1005.99 662.991 1011.85 668.985 1017.59C837.199 1178.5 900.062 1238.63 1023.06 1238.63C1242.34 1238.63 1363.96 1000 1363.96 1000L1430.07 1000ZM1430.07 1000C1430.07 830.699 1382.94 584.003 1119.8 584.002C889.602 584.002 764.077 793.775 675.805 941.292C663.173 962.402 651.304 982.237 640 1000L650.596 1000C656.864 994.009 662.991 988.148 668.985 982.414C837.199 821.5 900.062 761.366 1023.06 761.366C1242.34 761.366 1363.96 1000 1363.96 1000L1430.07 1000Z" fill="white" fill-opacity="0.8"/>
<path d="M1119.8 1416L1119.8 1417L1119.8 1416ZM1430.07 1000L1431.07 1000L1431.07 999L1430.07 999L1430.07 1000ZM675.805 1058.71L676.663 1058.19L676.663 1058.19L675.805 1058.71ZM640 1000L640 999L638.179 999L639.157 1000.54L640 1000ZM650.596 1000L651.287 999.277L650.997 999L650.596 999L650.596 1000ZM668.985 1017.59L668.294 1018.31L668.294 1018.31L668.985 1017.59ZM1363.96 1000L1363.96 999L1363.35 999L1363.07 999.546L1363.96 1000ZM1430.07 1000L1430.07 1001L1431.07 1001L1431.07 1000L1430.07 1000ZM675.805 941.292L676.663 941.805L676.663 941.805L675.805 941.292ZM640 1000L639.157 999.463L638.179 1001L640 1001L640 1000ZM650.596 1000L650.596 1001L650.997 1001L651.287 1000.72L650.596 1000ZM668.985 982.414L669.676 983.137L669.676 983.137L668.985 982.414ZM1363.96 1000L1363.07 1000.45L1363.35 1001L1363.96 1001L1363.96 1000ZM1119.8 1417C1185.75 1417 1238.22 1401.54 1279.82 1375.65C1321.42 1349.77 1352.09 1313.5 1374.5 1271.96C1419.29 1188.91 1431.07 1084.71 1431.07 1000L1429.07 1000C1429.07 1084.59 1417.29 1188.39 1372.74 1271.01C1350.46 1312.31 1320.01 1348.29 1278.77 1373.96C1237.52 1399.62 1185.42 1415 1119.8 1415L1119.8 1417ZM674.947 1059.22C719.073 1132.96 772.582 1222.4 843.875 1293.38C915.189 1364.39 1004.36 1417 1119.8 1417L1119.8 1415C1005.04 1415 916.352 1362.72 845.286 1291.96C774.198 1221.18 720.809 1131.97 676.663 1058.19L674.947 1059.22ZM639.157 1000.54C650.452 1018.29 662.313 1038.11 674.947 1059.22L676.663 1058.19C664.033 1037.09 652.157 1017.24 640.844 999.463L639.157 1000.54ZM650.596 999L640 999L640 1001L650.596 1001L650.596 999ZM669.676 1016.86C663.683 1011.13 657.555 1005.27 651.287 999.277L649.905 1000.72C656.173 1006.71 662.3 1012.57 668.294 1018.31L669.676 1016.86ZM1023.06 1237.63C961.772 1237.63 915.5 1222.67 863.538 1187.62C811.508 1152.53 753.81 1097.35 669.676 1016.86L668.294 1018.31C752.374 1098.74 810.215 1154.07 862.419 1189.28C914.691 1224.53 961.348 1239.63 1023.06 1239.63L1023.06 1237.63ZM1363.96 1000C1363.07 999.546 1363.07 999.547 1363.07 999.548C1363.07 999.55 1363.07 999.552 1363.07 999.556C1363.07 999.562 1363.06 999.573 1363.05 999.587C1363.04 999.615 1363.02 999.657 1362.99 999.714C1362.93 999.827 1362.84 999.996 1362.72 1000.22C1362.49 1000.67 1362.14 1001.33 1361.67 1002.2C1360.73 1003.95 1359.32 1006.5 1357.44 1009.76C1353.7 1016.26 1348.1 1025.57 1340.7 1036.73C1325.9 1059.07 1303.88 1088.85 1275.03 1118.62C1217.3 1178.18 1132.32 1237.63 1023.06 1237.63L1023.06 1239.63C1133.08 1239.63 1218.55 1179.77 1276.46 1120.01C1305.42 1090.13 1327.52 1060.25 1342.37 1037.84C1349.8 1026.63 1355.41 1017.29 1359.18 1010.75C1361.06 1007.48 1362.48 1004.91 1363.43 1003.16C1363.9 1002.28 1364.26 1001.6 1364.49 1001.15C1364.61 1000.92 1364.7 1000.75 1364.76 1000.63C1364.79 1000.57 1364.82 1000.53 1364.83 1000.5C1364.84 1000.49 1364.85 1000.47 1364.85 1000.47C1364.85 1000.46 1364.85 1000.46 1364.85 1000.46C1364.86 1000.46 1364.86 1000.45 1363.96 1000ZM1430.07 999L1363.96 999L1363.96 1001L1430.07 1001L1430.07 999ZM1119.8 585.002C1185.42 585.002 1237.52 600.381 1278.77 626.043C1320.01 651.708 1350.46 687.692 1372.74 728.988C1417.29 811.608 1429.07 915.41 1429.07 1000L1431.07 1000C1431.07 915.289 1419.29 811.092 1374.5 728.039C1352.09 686.497 1321.42 650.227 1279.82 624.345C1238.22 598.461 1185.75 583.002 1119.8 583.002L1119.8 585.002ZM676.663 941.805C720.809 868.03 774.198 778.817 845.286 708.037C916.352 637.278 1005.04 585.002 1119.8 585.002L1119.8 583.002C1004.36 583.002 915.189 635.614 843.875 706.62C772.582 777.605 719.073 867.036 674.947 940.778L676.663 941.805ZM640.844 1000.54C652.157 982.76 664.033 962.912 676.663 941.805L674.947 940.778C662.313 961.891 650.452 981.714 639.157 999.463L640.844 1000.54ZM650.596 999L640 999L640 1001L650.596 1001L650.596 999ZM668.293 981.692C662.3 987.425 656.173 993.286 649.905 999.277L651.287 1000.72C657.555 994.732 663.683 988.87 669.676 983.137L668.293 981.692ZM1023.06 760.366C961.348 760.366 914.691 775.466 862.419 810.718C810.215 845.925 752.374 901.261 668.293 981.692L669.676 983.137C753.81 902.654 811.508 847.465 863.538 812.376C915.5 777.333 961.772 762.366 1023.06 762.366L1023.06 760.366ZM1363.96 1000C1364.86 999.546 1364.86 999.545 1364.85 999.543C1364.85 999.541 1364.85 999.538 1364.85 999.534C1364.85 999.526 1364.84 999.515 1364.83 999.5C1364.82 999.47 1364.79 999.426 1364.76 999.368C1364.7 999.251 1364.61 999.079 1364.49 998.851C1364.26 998.396 1363.9 997.722 1363.43 996.845C1362.48 995.089 1361.06 992.518 1359.18 989.248C1355.41 982.706 1349.8 973.366 1342.37 962.161C1327.52 939.752 1305.42 909.871 1276.46 879.987C1218.55 820.233 1133.08 760.366 1023.06 760.366L1023.06 762.366C1132.32 762.366 1217.3 821.816 1275.03 881.379C1303.88 911.153 1325.9 940.931 1340.7 963.266C1348.1 974.432 1353.7 983.736 1357.44 990.245C1359.32 993.499 1360.73 996.055 1361.67 997.795C1362.14 998.666 1362.49 999.332 1362.72 999.78C1362.84 1000 1362.93 1000.17 1362.99 1000.29C1363.02 1000.34 1363.04 1000.39 1363.05 1000.41C1363.06 1000.43 1363.07 1000.44 1363.07 1000.44C1363.07 1000.45 1363.07 1000.45 1363.07 1000.45C1363.07 1000.45 1363.07 1000.45 1363.96 1000ZM1430.07 999L1363.96 999L1363.96 1001L1430.07 1001L1430.07 999Z" fill="white" mask="url(#path-4-inside-2_855_10686)"/>
</svg>
