<svg width="1600" height="2000" viewBox="0 0 1600 2000" fill="none" xmlns="http://www.w3.org/2000/svg">
<rect x="50" y="50" width="1500" height="1900" rx="58" fill="#2D2D31"/>
<path d="M113.935 108.545L104.56 143.375H100.767L110.142 108.545H113.935ZM128.622 108.545L119.247 143.375H115.455L124.83 108.545H128.622ZM142.301 139.483C140.057 139.473 138.139 138.882 136.548 137.707C134.957 136.533 133.741 134.824 132.898 132.58C132.055 130.335 131.634 127.632 131.634 124.469C131.634 121.315 132.055 118.621 132.898 116.386C133.75 114.152 134.972 112.447 136.562 111.273C138.163 110.098 140.076 109.511 142.301 109.511C144.527 109.511 146.435 110.103 148.026 111.287C149.616 112.461 150.833 114.166 151.676 116.401C152.528 118.626 152.955 121.315 152.955 124.469C152.955 127.641 152.533 130.349 151.69 132.594C150.848 134.829 149.631 136.538 148.04 137.722C146.449 138.896 144.536 139.483 142.301 139.483ZM142.301 135.69C144.271 135.69 145.81 134.729 146.918 132.807C148.035 130.884 148.594 128.105 148.594 124.469C148.594 122.054 148.338 120.013 147.827 118.347C147.325 116.67 146.6 115.402 145.653 114.54C144.716 113.669 143.598 113.233 142.301 113.233C140.341 113.233 138.802 114.199 137.685 116.131C136.567 118.062 136.004 120.842 135.994 124.469C135.994 126.893 136.245 128.943 136.747 130.619C137.259 132.286 137.983 133.55 138.92 134.412C139.858 135.264 140.985 135.69 142.301 135.69ZM157.994 139V135.818L167.837 125.619C168.888 124.511 169.755 123.541 170.437 122.707C171.128 121.865 171.644 121.064 171.985 120.307C172.326 119.549 172.496 118.744 172.496 117.892C172.496 116.926 172.269 116.093 171.815 115.392C171.36 114.682 170.74 114.137 169.954 113.759C169.168 113.37 168.282 113.176 167.298 113.176C166.256 113.176 165.347 113.389 164.57 113.815C163.794 114.241 163.197 114.843 162.781 115.619C162.364 116.396 162.156 117.305 162.156 118.347H157.965C157.965 116.576 158.372 115.027 159.187 113.702C160.001 112.376 161.119 111.348 162.539 110.619C163.96 109.881 165.574 109.511 167.383 109.511C169.21 109.511 170.82 109.876 172.212 110.605C173.614 111.325 174.708 112.31 175.494 113.56C176.28 114.8 176.673 116.202 176.673 117.764C176.673 118.844 176.469 119.9 176.062 120.932C175.664 121.964 174.968 123.115 173.974 124.384C172.979 125.643 171.597 127.172 169.826 128.972L164.045 135.023V135.236H177.141V139H157.994ZM197.898 109.909V139H193.509V109.909H197.898ZM212.116 139.426C210.355 139.426 208.783 138.976 207.401 138.077C206.027 137.168 204.948 135.875 204.162 134.199C203.385 132.513 202.997 130.491 202.997 128.134C202.997 125.776 203.39 123.759 204.176 122.082C204.972 120.406 206.061 119.123 207.443 118.233C208.826 117.343 210.393 116.898 212.145 116.898C213.499 116.898 214.588 117.125 215.412 117.58C216.245 118.025 216.889 118.545 217.344 119.142C217.808 119.739 218.168 120.264 218.423 120.719H218.679V109.909H222.926V139H218.778V135.605H218.423C218.168 136.069 217.798 136.599 217.315 137.196C216.842 137.793 216.188 138.313 215.355 138.759C214.522 139.204 213.442 139.426 212.116 139.426ZM213.054 135.804C214.276 135.804 215.308 135.482 216.151 134.838C217.003 134.185 217.647 133.28 218.082 132.125C218.527 130.97 218.75 129.625 218.75 128.091C218.75 126.576 218.532 125.25 218.097 124.114C217.661 122.977 217.022 122.092 216.179 121.457C215.336 120.823 214.295 120.506 213.054 120.506C211.776 120.506 210.71 120.837 209.858 121.5C209.006 122.163 208.362 123.067 207.926 124.213C207.5 125.359 207.287 126.652 207.287 128.091C207.287 129.549 207.505 130.861 207.94 132.026C208.376 133.19 209.02 134.114 209.872 134.795C210.734 135.468 211.795 135.804 213.054 135.804ZM238.391 139.44C236.242 139.44 234.39 138.981 232.837 138.062C231.294 137.134 230.101 135.832 229.258 134.156C228.424 132.471 228.008 130.496 228.008 128.233C228.008 125.998 228.424 124.028 229.258 122.324C230.101 120.619 231.275 119.289 232.781 118.332C234.296 117.376 236.067 116.898 238.093 116.898C239.324 116.898 240.517 117.101 241.673 117.509C242.828 117.916 243.865 118.555 244.783 119.426C245.702 120.297 246.426 121.429 246.957 122.821C247.487 124.204 247.752 125.884 247.752 127.864V129.369H230.408V126.188H243.59C243.59 125.07 243.363 124.08 242.908 123.219C242.454 122.348 241.815 121.661 240.991 121.159C240.176 120.657 239.22 120.406 238.121 120.406C236.928 120.406 235.887 120.7 234.996 121.287C234.116 121.865 233.434 122.622 232.951 123.56C232.478 124.488 232.241 125.496 232.241 126.585V129.071C232.241 130.529 232.496 131.77 233.008 132.793C233.529 133.815 234.253 134.597 235.181 135.136C236.109 135.667 237.193 135.932 238.434 135.932C239.239 135.932 239.973 135.818 240.636 135.591C241.299 135.354 241.871 135.004 242.354 134.54C242.837 134.076 243.207 133.503 243.462 132.821L247.482 133.545C247.16 134.729 246.583 135.766 245.749 136.656C244.925 137.537 243.888 138.223 242.638 138.716C241.398 139.199 239.982 139.44 238.391 139.44ZM256.712 126.045V139H252.464V117.182H256.541V120.733H256.811C257.313 119.578 258.099 118.65 259.169 117.949C260.249 117.248 261.607 116.898 263.246 116.898C264.732 116.898 266.035 117.21 267.152 117.835C268.269 118.451 269.136 119.369 269.751 120.591C270.367 121.812 270.675 123.323 270.675 125.122V139H266.428V125.634C266.428 124.052 266.016 122.816 265.192 121.926C264.368 121.027 263.236 120.577 261.797 120.577C260.812 120.577 259.936 120.79 259.169 121.216C258.411 121.642 257.81 122.267 257.365 123.091C256.929 123.905 256.712 124.89 256.712 126.045ZM286.555 117.182V120.591H274.638V117.182H286.555ZM277.834 111.955H282.081V132.594C282.081 133.418 282.204 134.038 282.45 134.455C282.696 134.862 283.014 135.141 283.402 135.293C283.8 135.435 284.231 135.506 284.695 135.506C285.036 135.506 285.334 135.482 285.589 135.435C285.845 135.387 286.044 135.349 286.186 135.321L286.953 138.83C286.707 138.924 286.357 139.019 285.902 139.114C285.447 139.218 284.879 139.275 284.197 139.284C283.08 139.303 282.038 139.104 281.072 138.688C280.107 138.271 279.325 137.627 278.729 136.756C278.132 135.884 277.834 134.791 277.834 133.474V111.955ZM291.254 139V117.182H295.501V139H291.254ZM293.398 113.815C292.66 113.815 292.025 113.569 291.495 113.077C290.974 112.575 290.714 111.978 290.714 111.287C290.714 110.586 290.974 109.99 291.495 109.497C292.025 108.995 292.66 108.744 293.398 108.744C294.137 108.744 294.767 108.995 295.288 109.497C295.818 109.99 296.083 110.586 296.083 111.287C296.083 111.978 295.818 112.575 295.288 113.077C294.767 113.569 294.137 113.815 293.398 113.815ZM311.399 117.182V120.591H299.482V117.182H311.399ZM302.678 111.955H306.925V132.594C306.925 133.418 307.048 134.038 307.294 134.455C307.54 134.862 307.857 135.141 308.246 135.293C308.643 135.435 309.074 135.506 309.538 135.506C309.879 135.506 310.178 135.482 310.433 135.435C310.689 135.387 310.888 135.349 311.03 135.321L311.797 138.83C311.551 138.924 311.2 139.019 310.746 139.114C310.291 139.218 309.723 139.275 309.041 139.284C307.924 139.303 306.882 139.104 305.916 138.688C304.95 138.271 304.169 137.627 303.572 136.756C302.976 135.884 302.678 134.791 302.678 133.474V111.955ZM318.782 147.182C318.147 147.182 317.57 147.13 317.049 147.026C316.528 146.931 316.14 146.827 315.884 146.713L316.907 143.233C317.683 143.441 318.375 143.531 318.981 143.503C319.587 143.474 320.122 143.247 320.586 142.821C321.059 142.395 321.476 141.699 321.836 140.733L322.362 139.284L314.379 117.182H318.924L324.45 134.114H324.677L330.202 117.182H334.762L325.771 141.912C325.354 143.048 324.824 144.009 324.18 144.795C323.536 145.591 322.769 146.188 321.879 146.585C320.988 146.983 319.956 147.182 318.782 147.182Z" fill="#6F6F73"/>
<path d="M359.864 139V109.909H362.52V136.614H376.384V139H359.864ZM390.318 139.455C388.434 139.455 386.767 138.976 385.318 138.02C383.879 137.063 382.752 135.742 381.938 134.057C381.123 132.362 380.716 130.406 380.716 128.19C380.716 125.955 381.123 123.991 381.938 122.295C382.752 120.591 383.879 119.265 385.318 118.318C386.767 117.362 388.434 116.884 390.318 116.884C392.203 116.884 393.865 117.362 395.304 118.318C396.743 119.275 397.87 120.6 398.685 122.295C399.509 123.991 399.92 125.955 399.92 128.19C399.92 130.406 399.513 132.362 398.699 134.057C397.884 135.742 396.753 137.063 395.304 138.02C393.865 138.976 392.203 139.455 390.318 139.455ZM390.318 137.139C391.833 137.139 393.116 136.732 394.168 135.918C395.219 135.103 396.014 134.019 396.554 132.665C397.103 131.311 397.378 129.819 397.378 128.19C397.378 126.562 397.103 125.065 396.554 123.702C396.014 122.338 395.219 121.244 394.168 120.42C393.116 119.597 391.833 119.185 390.318 119.185C388.813 119.185 387.529 119.597 386.469 120.42C385.418 121.244 384.617 122.338 384.068 123.702C383.528 125.065 383.259 126.562 383.259 128.19C383.259 129.819 383.528 131.311 384.068 132.665C384.617 134.019 385.418 135.103 386.469 135.918C387.52 136.732 388.803 137.139 390.318 137.139ZM413.795 147.636C412.308 147.636 411.006 147.442 409.888 147.054C408.771 146.675 407.829 146.154 407.062 145.491C406.295 144.829 405.698 144.085 405.272 143.261L407.346 141.898C407.658 142.447 408.075 142.987 408.596 143.517C409.126 144.047 409.813 144.488 410.656 144.838C411.508 145.188 412.554 145.364 413.795 145.364C415.727 145.364 417.284 144.881 418.468 143.915C419.661 142.949 420.258 141.448 420.258 139.412V134.497H420.031C419.737 135.16 419.316 135.823 418.766 136.486C418.217 137.139 417.497 137.684 416.607 138.119C415.727 138.555 414.633 138.773 413.326 138.773C411.584 138.773 410.035 138.342 408.681 137.48C407.336 136.618 406.276 135.387 405.499 133.787C404.732 132.177 404.349 130.259 404.349 128.034C404.349 125.828 404.723 123.886 405.471 122.21C406.228 120.534 407.284 119.227 408.638 118.29C409.993 117.352 411.569 116.884 413.369 116.884C414.704 116.884 415.812 117.12 416.692 117.594C417.573 118.058 418.279 118.635 418.809 119.327C419.349 120.018 419.77 120.69 420.073 121.344H420.329V117.182H422.8V139.568C422.8 141.415 422.407 142.935 421.621 144.128C420.835 145.321 419.765 146.202 418.411 146.77C417.057 147.348 415.518 147.636 413.795 147.636ZM413.624 136.457C415.026 136.457 416.224 136.121 417.218 135.449C418.212 134.767 418.975 133.792 419.505 132.523C420.035 131.254 420.3 129.743 420.3 127.991C420.3 126.287 420.04 124.777 419.519 123.46C418.998 122.134 418.241 121.093 417.246 120.335C416.262 119.568 415.054 119.185 413.624 119.185C412.166 119.185 410.935 119.578 409.931 120.364C408.927 121.15 408.17 122.21 407.658 123.545C407.147 124.871 406.891 126.353 406.891 127.991C406.891 129.658 407.152 131.131 407.673 132.409C408.193 133.678 408.956 134.672 409.96 135.392C410.963 136.102 412.185 136.457 413.624 136.457ZM437.974 139.455C436.09 139.455 434.423 138.976 432.974 138.02C431.535 137.063 430.408 135.742 429.594 134.057C428.779 132.362 428.372 130.406 428.372 128.19C428.372 125.955 428.779 123.991 429.594 122.295C430.408 120.591 431.535 119.265 432.974 118.318C434.423 117.362 436.09 116.884 437.974 116.884C439.859 116.884 441.521 117.362 442.96 118.318C444.4 119.275 445.527 120.6 446.341 122.295C447.165 123.991 447.577 125.955 447.577 128.19C447.577 130.406 447.17 132.362 446.355 134.057C445.541 135.742 444.409 137.063 442.96 138.02C441.521 138.976 439.859 139.455 437.974 139.455ZM437.974 137.139C439.49 137.139 440.773 136.732 441.824 135.918C442.875 135.103 443.67 134.019 444.21 132.665C444.759 131.311 445.034 129.819 445.034 128.19C445.034 126.562 444.759 125.065 444.21 123.702C443.67 122.338 442.875 121.244 441.824 120.42C440.773 119.597 439.49 119.185 437.974 119.185C436.469 119.185 435.186 119.597 434.125 120.42C433.074 121.244 432.274 122.338 431.724 123.702C431.185 125.065 430.915 126.562 430.915 128.19C430.915 129.819 431.185 131.311 431.724 132.665C432.274 134.019 433.074 135.103 434.125 135.918C435.176 136.732 436.459 137.139 437.974 137.139Z" fill="#6F6F73"/>
<g opacity="0.5">
<g clip-path="url(#clip0_855_5343)">
<path d="M321.5 1081.5H1345.5" stroke="#F5F5F5"/>
<path d="M321.5 890.5H1345.5" stroke="#F5F5F5"/>
<path d="M321.5 699.5H1345.5" stroke="#F5F5F5"/>
<path d="M1024.5 1402.5V378.5" stroke="#F5F5F5"/>
<path d="M833.5 1402.5V378.5" stroke="#F5F5F5"/>
<path d="M642.5 1402.5V378.5" stroke="#F5F5F5"/>
<path d="M1345.5 1402.5L321.5 378.5" stroke="#F5F5F5"/>
<path d="M321.5 1402.5L1345.5 378.5" stroke="#F5F5F5"/>
<rect x="384.116" y="445.5" width="831.768" height="890" stroke="#F5F5F5"/>
<circle cx="800.5" cy="890.5" r="191" stroke="#F5F5F5"/>
<circle cx="800.5" cy="890.5" r="269" stroke="#F5F5F5"/>
<circle cx="800.5" cy="890.5" r="445" stroke="#F5F5F5"/>
<path fill-rule="evenodd" clip-rule="evenodd" d="M363.5 890C363.5 774.942 395.529 607.285 574.363 607.285C730.808 607.285 816.116 749.848 876.106 850.101C884.691 864.448 892.757 877.928 900.439 890H893.239C888.979 885.929 884.815 881.945 880.741 878.049C766.421 768.69 723.699 727.823 640.11 727.823C491.082 727.823 408.427 890 408.427 890H363.5ZM363.5 890.001C363.5 1005.06 395.529 1172.72 574.363 1172.72C730.808 1172.72 816.116 1030.15 876.106 929.9C884.691 915.553 892.757 902.073 900.439 890.001H893.239C888.979 894.072 884.815 898.056 880.741 901.952C766.421 1011.31 723.699 1052.18 640.11 1052.18C491.082 1052.18 408.427 890.001 408.427 890.001H363.5Z" fill="white" fill-opacity="0.8"/>
<path d="M363.5 890H363V890.5H363.5V890ZM876.106 850.101L876.535 849.845L876.535 849.845L876.106 850.101ZM900.439 890V890.5H901.35L900.861 889.732L900.439 890ZM893.239 890L892.893 890.362L893.038 890.5H893.239V890ZM880.741 878.049L880.396 878.41L880.396 878.41L880.741 878.049ZM408.427 890V890.5H408.734L408.873 890.227L408.427 890ZM363.5 890.001V889.501H363V890.001H363.5ZM876.106 929.9L875.677 929.643L875.677 929.643L876.106 929.9ZM900.439 890.001L900.861 890.269L901.35 889.501H900.439V890.001ZM893.239 890.001V889.501H893.038L892.893 889.639L893.239 890.001ZM880.741 901.952L880.396 901.591L880.396 901.591L880.741 901.952ZM408.427 890.001L408.873 889.774L408.734 889.501H408.427V890.001ZM574.363 606.785C529.573 606.785 493.946 617.284 465.706 634.855C437.467 652.425 416.642 677.049 401.429 705.258C371.009 761.663 363 832.441 363 890H364C364 832.501 372.006 761.921 402.309 705.733C417.456 677.646 438.17 653.165 466.234 635.704C494.296 618.244 529.735 607.785 574.363 607.785V606.785ZM876.535 849.845C846.545 799.726 810.191 738.968 761.758 690.744C713.315 642.51 652.757 606.785 574.363 606.785V607.785C652.414 607.785 712.733 643.342 761.052 691.453C809.383 739.574 845.677 800.223 875.677 850.358L876.535 849.845ZM900.861 889.732C893.183 877.667 885.121 864.193 876.535 849.845L875.677 850.358C884.261 864.703 892.331 878.19 900.017 890.269L900.861 889.732ZM893.239 890.5H900.439V889.5H893.239V890.5ZM880.396 878.41C884.469 882.307 888.633 886.29 892.893 890.362L893.584 889.639C889.324 885.567 885.16 881.584 881.087 877.688L880.396 878.41ZM640.11 728.323C681.799 728.323 713.28 738.506 748.622 762.341C783.997 786.198 823.222 823.718 880.396 878.41L881.087 877.688C823.94 823.021 784.644 785.428 749.181 761.512C713.685 737.573 682.011 727.323 640.11 727.323V728.323ZM408.427 890C408.873 890.227 408.873 890.227 408.874 890.226C408.874 890.225 408.875 890.223 408.876 890.221C408.879 890.216 408.882 890.209 408.887 890.199C408.897 890.18 408.912 890.151 408.932 890.112C408.972 890.035 409.032 889.92 409.112 889.767C409.272 889.462 409.512 889.009 409.832 888.417C410.472 887.232 411.43 885.494 412.703 883.281C415.25 878.855 419.055 872.529 424.088 864.936C434.153 849.751 449.123 829.504 468.742 809.259C507.988 768.763 565.787 728.323 640.11 728.323V727.323C565.404 727.323 507.362 767.971 468.024 808.563C448.351 828.863 433.344 849.161 423.254 864.384C418.209 871.996 414.392 878.34 411.837 882.782C410.559 885.004 409.596 886.75 408.952 887.941C408.63 888.537 408.388 888.994 408.226 889.303C408.145 889.457 408.084 889.574 408.044 889.653C408.023 889.692 408.008 889.722 407.998 889.742C407.993 889.752 407.989 889.76 407.986 889.765C407.985 889.768 407.984 889.77 407.983 889.771C407.982 889.772 407.982 889.773 408.427 890ZM363.5 890.5H408.427V889.5H363.5V890.5ZM574.363 1172.22C529.735 1172.22 494.296 1161.76 466.234 1144.3C438.17 1126.84 417.456 1102.35 402.309 1074.27C372.006 1018.08 364 947.5 364 890.001H363C363 947.56 371.009 1018.34 401.429 1074.74C416.642 1102.95 437.467 1127.58 465.706 1145.15C493.946 1162.72 529.573 1173.22 574.363 1173.22V1172.22ZM875.677 929.643C845.677 979.778 809.382 1040.43 761.052 1088.55C712.733 1136.66 652.414 1172.22 574.363 1172.22V1173.22C652.757 1173.22 713.315 1137.49 761.758 1089.26C810.191 1041.03 846.545 980.275 876.535 930.156L875.677 929.643ZM900.017 889.732C892.331 901.811 884.261 915.298 875.677 929.643L876.535 930.156C885.121 915.808 893.183 902.334 900.861 890.269L900.017 889.732ZM893.239 890.501H900.439V889.501H893.239V890.501ZM881.087 902.313C885.16 898.417 889.324 894.434 893.584 890.362L892.893 889.639C888.633 893.711 884.469 897.694 880.396 901.591L881.087 902.313ZM640.11 1052.68C682.011 1052.68 713.685 1042.43 749.181 1018.49C784.644 994.573 823.94 956.98 881.087 902.313L880.396 901.591C823.222 956.283 783.997 993.803 748.622 1017.66C713.28 1041.49 681.799 1051.68 640.11 1051.68V1052.68ZM408.427 890.001C407.982 890.228 407.982 890.229 407.983 890.23C407.984 890.231 407.985 890.233 407.986 890.236C407.989 890.241 407.993 890.249 407.998 890.259C408.008 890.279 408.023 890.309 408.044 890.348C408.084 890.427 408.145 890.544 408.226 890.698C408.388 891.007 408.63 891.464 408.952 892.06C409.596 893.251 410.559 894.997 411.837 897.219C414.392 901.661 418.209 908.005 423.254 915.617C433.344 930.84 448.351 951.138 468.024 971.438C507.362 1012.03 565.404 1052.68 640.11 1052.68V1051.68C565.787 1051.68 507.988 1011.24 468.742 970.742C449.123 950.497 434.153 930.25 424.088 915.065C419.055 907.473 415.25 901.147 412.703 896.72C411.43 894.507 410.472 892.769 409.832 891.585C409.512 890.992 409.272 890.539 409.112 890.234C409.032 890.081 408.972 889.966 408.932 889.889C408.912 889.85 408.897 889.821 408.887 889.802C408.882 889.792 408.879 889.785 408.876 889.781C408.875 889.778 408.874 889.777 408.874 889.775C408.873 889.774 408.873 889.774 408.427 890.001ZM363.5 890.501H408.427V889.501H363.5V890.501Z" fill="white"/>
<path fill-rule="evenodd" clip-rule="evenodd" d="M1237.38 890.001C1237.38 1005.06 1205.35 1172.72 1026.52 1172.72C870.07 1172.72 784.763 1030.15 724.773 929.9C716.188 915.553 708.122 902.073 700.44 890.001L707.64 890.001C711.9 894.072 716.064 898.056 720.138 901.952C834.458 1011.31 877.179 1052.18 960.769 1052.18C1109.8 1052.18 1192.45 890.001 1192.45 890.001L1237.38 890.001ZM1237.38 890C1237.38 774.942 1205.35 607.285 1026.52 607.285C870.07 607.285 784.763 749.848 724.773 850.101C716.188 864.448 708.122 877.928 700.44 890L707.64 890C711.9 885.929 716.064 881.945 720.137 878.049C834.458 768.69 877.179 727.823 960.769 727.823C1109.8 727.823 1192.45 890 1192.45 890L1237.38 890Z" fill="white" fill-opacity="0.8"/>
<path d="M1237.38 890.001L1237.88 890.001L1237.88 889.501L1237.38 889.501L1237.38 890.001ZM724.773 929.9L724.344 930.156L724.344 930.156L724.773 929.9ZM700.44 890.001L700.44 889.501L699.529 889.501L700.018 890.269L700.44 890.001ZM707.64 890.001L707.986 889.639L707.841 889.501L707.64 889.501L707.64 890.001ZM720.138 901.952L720.483 901.591L720.483 901.591L720.138 901.952ZM1192.45 890.001L1192.45 889.501L1192.15 889.501L1192.01 889.774L1192.45 890.001ZM1237.38 890L1237.38 890.5L1237.88 890.5L1237.88 890L1237.38 890ZM724.773 850.101L725.202 850.358L725.202 850.358L724.773 850.101ZM700.44 890L700.018 889.732L699.529 890.5L700.44 890.5L700.44 890ZM707.64 890L707.64 890.5L707.841 890.5L707.986 890.362L707.64 890ZM720.137 878.049L719.792 877.688L719.792 877.688L720.137 878.049ZM1192.45 890L1192.01 890.227L1192.15 890.5L1192.45 890.5L1192.45 890ZM1026.52 1173.22C1071.31 1173.22 1106.93 1162.72 1135.17 1145.15C1163.41 1127.58 1184.24 1102.95 1199.45 1074.74C1229.87 1018.34 1237.88 947.56 1237.88 890.001L1236.88 890.001C1236.88 947.5 1228.87 1018.08 1198.57 1074.27C1183.42 1102.35 1162.71 1126.84 1134.64 1144.3C1106.58 1161.76 1071.14 1172.22 1026.52 1172.22L1026.52 1173.22ZM724.344 930.156C754.334 980.275 790.688 1041.03 839.121 1089.26C887.564 1137.49 948.122 1173.22 1026.52 1173.22L1026.52 1172.22C948.465 1172.22 888.146 1136.66 839.826 1088.55C791.496 1040.43 755.202 979.778 725.202 929.643L724.344 930.156ZM700.018 890.269C707.695 902.334 715.758 915.808 724.344 930.156L725.202 929.643C716.618 915.298 708.548 901.811 700.861 889.732L700.018 890.269ZM707.64 889.501L700.44 889.501L700.44 890.501L707.64 890.501L707.64 889.501ZM720.483 901.591C716.41 897.694 712.246 893.711 707.986 889.639L707.295 890.362C711.555 894.434 715.719 898.417 719.792 902.313L720.483 901.591ZM960.769 1051.68C919.08 1051.68 887.599 1041.49 852.257 1017.66C816.881 993.803 777.657 956.283 720.483 901.591L719.792 902.313C776.938 956.98 816.235 994.573 851.698 1018.49C887.194 1042.43 918.868 1052.68 960.769 1052.68L960.769 1051.68ZM1192.45 890.001C1192.01 889.774 1192.01 889.774 1192.01 889.775C1192 889.777 1192 889.778 1192 889.781C1192 889.785 1192 889.793 1191.99 889.802C1191.98 889.821 1191.97 889.85 1191.95 889.889C1191.91 889.966 1191.85 890.081 1191.77 890.234C1191.61 890.539 1191.37 890.993 1191.05 891.585C1190.41 892.769 1189.45 894.507 1188.18 896.72C1185.63 901.147 1181.82 907.473 1176.79 915.065C1166.73 930.25 1151.76 950.497 1132.14 970.742C1092.89 1011.24 1035.09 1051.68 960.769 1051.68L960.769 1052.68C1035.47 1052.68 1093.52 1012.03 1132.85 971.438C1152.53 951.138 1167.54 930.84 1177.62 915.617C1182.67 908.006 1186.49 901.661 1189.04 897.219C1190.32 894.997 1191.28 893.251 1191.93 892.06C1192.25 891.464 1192.49 891.007 1192.65 890.698C1192.73 890.544 1192.79 890.427 1192.84 890.348C1192.86 890.309 1192.87 890.279 1192.88 890.259C1192.89 890.249 1192.89 890.241 1192.89 890.236C1192.89 890.233 1192.9 890.231 1192.9 890.23C1192.9 890.229 1192.9 890.228 1192.45 890.001ZM1237.38 889.501L1192.45 889.501L1192.45 890.501L1237.38 890.501L1237.38 889.501ZM1026.52 607.785C1071.14 607.785 1106.58 618.244 1134.64 635.704C1162.71 653.165 1183.42 677.646 1198.57 705.733C1228.87 761.921 1236.88 832.501 1236.88 890L1237.88 890C1237.88 832.441 1229.87 761.663 1199.45 705.258C1184.24 677.049 1163.41 652.425 1135.17 634.855C1106.93 617.284 1071.31 606.785 1026.52 606.785L1026.52 607.785ZM725.202 850.358C755.202 800.223 791.496 739.574 839.826 691.453C888.146 643.342 948.465 607.785 1026.52 607.785L1026.52 606.785C948.122 606.785 887.564 642.51 839.121 690.744C790.688 738.968 754.334 799.726 724.344 849.845L725.202 850.358ZM700.861 890.269C708.548 878.19 716.618 864.703 725.202 850.358L724.344 849.845C715.758 864.193 707.695 877.667 700.018 889.732L700.861 890.269ZM707.64 889.5L700.44 889.5L700.44 890.5L707.64 890.5L707.64 889.5ZM719.792 877.688C715.719 881.584 711.555 885.567 707.295 889.639L707.986 890.362C712.246 886.29 716.41 882.307 720.483 878.41L719.792 877.688ZM960.769 727.323C918.868 727.323 887.194 737.573 851.698 761.512C816.235 785.428 776.938 823.021 719.792 877.688L720.483 878.41C777.657 823.718 816.881 786.198 852.257 762.341C887.599 738.506 919.08 728.323 960.769 728.323L960.769 727.323ZM1192.45 890C1192.9 889.773 1192.9 889.772 1192.9 889.771C1192.9 889.77 1192.89 889.768 1192.89 889.765C1192.89 889.76 1192.89 889.752 1192.88 889.742C1192.87 889.722 1192.86 889.693 1192.84 889.653C1192.79 889.574 1192.73 889.457 1192.65 889.303C1192.49 888.994 1192.25 888.537 1191.93 887.941C1191.28 886.75 1190.32 885.004 1189.04 882.782C1186.49 878.34 1182.67 871.996 1177.62 864.384C1167.54 849.161 1152.53 828.863 1132.85 808.564C1093.52 767.971 1035.47 727.323 960.769 727.323L960.769 728.323C1035.09 728.323 1092.89 768.763 1132.14 809.259C1151.76 829.504 1166.73 849.751 1176.79 864.936C1181.82 872.529 1185.63 878.855 1188.18 883.281C1189.45 885.494 1190.41 887.233 1191.05 888.417C1191.37 889.009 1191.61 889.462 1191.77 889.767C1191.85 889.92 1191.91 890.035 1191.95 890.112C1191.97 890.151 1191.98 890.18 1191.99 890.199C1192 890.209 1192 890.216 1192 890.221C1192 890.223 1192 890.225 1192.01 890.226C1192.01 890.227 1192.01 890.227 1192.45 890ZM1237.38 889.5L1192.45 889.5L1192.45 890.5L1237.38 890.5L1237.38 889.5Z" fill="white"/>
</g>
<rect x="322.5" y="379.5" width="955" height="1022" rx="227" stroke="#F5F5F5" stroke-width="2"/>
</g>
<path d="M356.69 1698.5H344.315V1663.59H356.793C360.304 1663.59 363.327 1664.29 365.861 1665.69C368.395 1667.07 370.344 1669.07 371.707 1671.67C373.082 1674.27 373.77 1677.39 373.77 1681.01C373.77 1684.65 373.082 1687.77 371.707 1690.39C370.344 1693 368.384 1695.01 365.827 1696.4C363.281 1697.8 360.236 1698.5 356.69 1698.5ZM351.696 1692.18H356.384C358.565 1692.18 360.401 1691.79 361.889 1691.02C363.389 1690.23 364.514 1689.02 365.264 1687.39C366.026 1685.74 366.406 1683.61 366.406 1681.01C366.406 1678.43 366.026 1676.32 365.264 1674.69C364.514 1673.05 363.395 1671.85 361.906 1671.07C360.418 1670.3 358.582 1669.91 356.401 1669.91H351.696V1692.18ZM391.033 1699.01C388.339 1699.01 386.021 1698.47 384.078 1697.38C382.146 1696.27 380.658 1694.72 379.612 1692.7C378.567 1690.68 378.044 1688.29 378.044 1685.53C378.044 1682.84 378.567 1680.47 379.612 1678.44C380.658 1676.4 382.129 1674.82 384.027 1673.68C385.936 1672.55 388.175 1671.98 390.743 1671.98C392.47 1671.98 394.078 1672.26 395.567 1672.81C397.067 1673.36 398.374 1674.18 399.487 1675.28C400.612 1676.39 401.487 1677.77 402.112 1679.44C402.737 1681.1 403.05 1683.05 403.05 1685.27V1687.27H380.942V1682.77H396.214C396.214 1681.72 395.987 1680.8 395.533 1679.99C395.078 1679.18 394.447 1678.55 393.641 1678.1C392.845 1677.63 391.919 1677.4 390.862 1677.4C389.76 1677.4 388.783 1677.65 387.93 1678.16C387.089 1678.66 386.43 1679.34 385.953 1680.19C385.476 1681.03 385.232 1681.97 385.22 1683.01V1687.28C385.22 1688.58 385.459 1689.7 385.936 1690.64C386.425 1691.59 387.112 1692.31 387.999 1692.82C388.885 1693.34 389.936 1693.59 391.152 1693.59C391.959 1693.59 392.697 1693.48 393.368 1693.25C394.038 1693.02 394.612 1692.68 395.089 1692.23C395.567 1691.77 395.93 1691.22 396.18 1690.56L402.896 1691C402.555 1692.61 401.857 1694.02 400.8 1695.23C399.754 1696.42 398.402 1697.35 396.743 1698.02C395.095 1698.68 393.192 1699.01 391.033 1699.01ZM429.572 1679.78L422.925 1680.19C422.811 1679.62 422.567 1679.11 422.192 1678.66C421.817 1678.19 421.322 1677.82 420.709 1677.55C420.107 1677.27 419.385 1677.12 418.544 1677.12C417.419 1677.12 416.47 1677.36 415.697 1677.84C414.925 1678.31 414.538 1678.93 414.538 1679.72C414.538 1680.34 414.788 1680.87 415.288 1681.3C415.788 1681.73 416.646 1682.08 417.862 1682.34L422.601 1683.3C425.146 1683.82 427.044 1684.66 428.294 1685.82C429.544 1686.98 430.169 1688.5 430.169 1690.39C430.169 1692.1 429.663 1693.61 428.652 1694.9C427.652 1696.2 426.277 1697.21 424.527 1697.94C422.788 1698.65 420.783 1699.01 418.51 1699.01C415.044 1699.01 412.283 1698.29 410.226 1696.85C408.18 1695.39 406.982 1693.41 406.629 1690.91L413.771 1690.54C413.987 1691.6 414.51 1692.4 415.339 1692.96C416.169 1693.51 417.232 1693.78 418.527 1693.78C419.8 1693.78 420.822 1693.53 421.595 1693.05C422.379 1692.55 422.777 1691.9 422.788 1691.12C422.777 1690.46 422.499 1689.92 421.953 1689.5C421.408 1689.07 420.567 1688.74 419.43 1688.51L414.896 1687.61C412.339 1687.1 410.436 1686.21 409.186 1684.95C407.947 1683.69 407.328 1682.08 407.328 1680.12C407.328 1678.44 407.783 1676.99 408.692 1675.78C409.612 1674.56 410.902 1673.62 412.561 1672.97C414.232 1672.31 416.186 1671.98 418.425 1671.98C421.732 1671.98 424.334 1672.68 426.232 1674.07C428.141 1675.47 429.254 1677.37 429.572 1679.78ZM434.741 1698.5V1672.32H442.003V1698.5H434.741ZM438.389 1668.94C437.31 1668.94 436.384 1668.59 435.611 1667.87C434.849 1667.14 434.469 1666.27 434.469 1665.26C434.469 1664.26 434.849 1663.4 435.611 1662.69C436.384 1661.96 437.31 1661.6 438.389 1661.6C439.469 1661.6 440.389 1661.96 441.151 1662.69C441.923 1663.4 442.31 1664.26 442.31 1665.26C442.31 1666.27 441.923 1667.14 441.151 1667.87C440.389 1668.59 439.469 1668.94 438.389 1668.94ZM459.615 1708.86C457.263 1708.86 455.246 1708.54 453.564 1707.89C451.893 1707.26 450.564 1706.39 449.575 1705.28C448.587 1704.18 447.945 1702.94 447.649 1701.57L454.365 1700.66C454.57 1701.19 454.893 1701.68 455.337 1702.13C455.78 1702.59 456.365 1702.95 457.092 1703.22C457.831 1703.51 458.729 1703.65 459.786 1703.65C461.365 1703.65 462.666 1703.26 463.689 1702.49C464.723 1701.73 465.24 1700.45 465.24 1698.65V1693.86H464.933C464.615 1694.59 464.138 1695.28 463.501 1695.93C462.865 1696.57 462.047 1697.1 461.047 1697.51C460.047 1697.92 458.854 1698.12 457.467 1698.12C455.501 1698.12 453.712 1697.67 452.098 1696.76C450.496 1695.84 449.217 1694.44 448.263 1692.55C447.32 1690.65 446.848 1688.26 446.848 1685.36C446.848 1682.39 447.331 1679.91 448.297 1677.93C449.263 1675.94 450.547 1674.45 452.149 1673.46C453.763 1672.47 455.53 1671.98 457.45 1671.98C458.916 1671.98 460.143 1672.23 461.132 1672.73C462.121 1673.22 462.916 1673.83 463.518 1674.57C464.132 1675.3 464.604 1676.01 464.933 1676.72H465.206V1672.32H472.416V1698.76C472.416 1700.98 471.871 1702.85 470.78 1704.35C469.689 1705.85 468.178 1706.97 466.246 1707.72C464.325 1708.48 462.115 1708.86 459.615 1708.86ZM459.768 1692.67C460.939 1692.67 461.928 1692.38 462.734 1691.8C463.553 1691.21 464.178 1690.37 464.609 1689.28C465.053 1688.18 465.274 1686.86 465.274 1685.32C465.274 1683.79 465.058 1682.46 464.626 1681.34C464.195 1680.2 463.57 1679.32 462.751 1678.69C461.933 1678.07 460.939 1677.76 459.768 1677.76C458.575 1677.76 457.57 1678.08 456.751 1678.73C455.933 1679.36 455.314 1680.25 454.893 1681.39C454.473 1682.52 454.263 1683.84 454.263 1685.32C454.263 1686.84 454.473 1688.14 454.893 1689.24C455.325 1690.34 455.945 1691.18 456.751 1691.78C457.57 1692.37 458.575 1692.67 459.768 1692.67ZM485.456 1683.36V1698.5H478.195V1672.32H485.115V1676.94H485.422C486.001 1675.41 486.973 1674.21 488.337 1673.32C489.7 1672.43 491.354 1671.98 493.297 1671.98C495.115 1671.98 496.7 1672.38 498.053 1673.17C499.405 1673.97 500.456 1675.1 501.206 1676.58C501.956 1678.05 502.331 1679.8 502.331 1681.83V1698.5H495.07V1683.12C495.081 1681.52 494.672 1680.27 493.842 1679.38C493.013 1678.47 491.871 1678.01 490.416 1678.01C489.439 1678.01 488.575 1678.22 487.825 1678.64C487.087 1679.06 486.507 1679.68 486.087 1680.48C485.678 1681.28 485.467 1682.24 485.456 1683.36ZM519.986 1699.01C517.293 1699.01 514.974 1698.47 513.031 1697.38C511.099 1696.27 509.611 1694.72 508.565 1692.7C507.52 1690.68 506.997 1688.29 506.997 1685.53C506.997 1682.84 507.52 1680.47 508.565 1678.44C509.611 1676.4 511.082 1674.82 512.98 1673.68C514.889 1672.55 517.128 1671.98 519.696 1671.98C521.423 1671.98 523.031 1672.26 524.52 1672.81C526.02 1673.36 527.327 1674.18 528.44 1675.28C529.565 1676.39 530.44 1677.77 531.065 1679.44C531.69 1681.1 532.003 1683.05 532.003 1685.27V1687.27H509.895V1682.77H525.168C525.168 1681.72 524.94 1680.8 524.486 1679.99C524.031 1679.18 523.401 1678.55 522.594 1678.1C521.798 1677.63 520.872 1677.4 519.815 1677.4C518.713 1677.4 517.736 1677.65 516.884 1678.16C516.043 1678.66 515.384 1679.34 514.906 1680.19C514.429 1681.03 514.185 1681.97 514.173 1683.01V1687.28C514.173 1688.58 514.412 1689.7 514.889 1690.64C515.378 1691.59 516.065 1692.31 516.952 1692.82C517.838 1693.34 518.889 1693.59 520.105 1693.59C520.912 1693.59 521.651 1693.48 522.321 1693.25C522.991 1693.02 523.565 1692.68 524.043 1692.23C524.52 1691.77 524.884 1691.22 525.134 1690.56L531.849 1691C531.509 1692.61 530.81 1694.02 529.753 1695.23C528.707 1696.42 527.355 1697.35 525.696 1698.02C524.048 1698.68 522.145 1699.01 519.986 1699.01ZM546.389 1698.93C544.401 1698.93 542.599 1698.41 540.986 1697.39C539.384 1696.36 538.111 1694.84 537.168 1692.84C536.236 1690.83 535.77 1688.36 535.77 1685.44C535.77 1682.44 536.253 1679.95 537.219 1677.96C538.185 1675.96 539.469 1674.47 541.071 1673.48C542.685 1672.48 544.452 1671.98 546.372 1671.98C547.838 1671.98 549.06 1672.23 550.037 1672.73C551.026 1673.22 551.821 1673.83 552.423 1674.57C553.037 1675.3 553.503 1676.01 553.821 1676.72H554.043V1663.59H561.287V1698.5H554.128V1694.31H553.821C553.48 1695.03 552.997 1695.76 552.372 1696.47C551.759 1697.18 550.957 1697.76 549.969 1698.23C548.991 1698.69 547.798 1698.93 546.389 1698.93ZM548.69 1693.15C549.861 1693.15 550.849 1692.83 551.656 1692.19C552.474 1691.55 553.099 1690.64 553.531 1689.48C553.974 1688.32 554.196 1686.97 554.196 1685.41C554.196 1683.85 553.98 1682.5 553.548 1681.35C553.116 1680.2 552.491 1679.32 551.673 1678.69C550.855 1678.07 549.861 1677.76 548.69 1677.76C547.497 1677.76 546.491 1678.08 545.673 1678.73C544.855 1679.37 544.236 1680.27 543.815 1681.42C543.395 1682.57 543.185 1683.9 543.185 1685.41C543.185 1686.93 543.395 1688.28 543.815 1689.45C544.247 1690.61 544.866 1691.52 545.673 1692.18C546.491 1692.82 547.497 1693.15 548.69 1693.15ZM583.531 1698.5L576.406 1672.32H583.753L587.81 1689.91H588.048L592.276 1672.32H599.486L603.781 1689.81H604.003L607.991 1672.32H615.321L608.213 1698.5H600.526L596.026 1682.03H595.702L591.202 1698.5H583.531ZM619.195 1698.5V1672.32H626.456V1698.5H619.195ZM622.842 1668.94C621.763 1668.94 620.837 1668.59 620.064 1667.87C619.303 1667.14 618.922 1666.27 618.922 1665.26C618.922 1664.26 619.303 1663.4 620.064 1662.69C620.837 1661.96 621.763 1661.6 622.842 1661.6C623.922 1661.6 624.842 1661.96 625.604 1662.69C626.376 1663.4 626.763 1664.26 626.763 1665.26C626.763 1666.27 626.376 1667.14 625.604 1667.87C624.842 1668.59 623.922 1668.94 622.842 1668.94ZM646.199 1672.32V1677.77H630.432V1672.32H646.199ZM634.011 1666.05H641.273V1690.45C641.273 1691.12 641.375 1691.65 641.58 1692.02C641.784 1692.39 642.068 1692.64 642.432 1692.79C642.807 1692.94 643.239 1693.01 643.727 1693.01C644.068 1693.01 644.409 1692.98 644.75 1692.93C645.091 1692.86 645.352 1692.81 645.534 1692.77L646.676 1698.18C646.313 1698.29 645.801 1698.42 645.142 1698.57C644.483 1698.73 643.682 1698.82 642.739 1698.86C640.989 1698.93 639.455 1698.69 638.136 1698.16C636.83 1697.62 635.813 1696.8 635.085 1695.67C634.358 1694.55 634 1693.12 634.011 1691.41V1666.05ZM658.753 1683.36V1698.5H651.491V1663.59H658.548V1676.94H658.855C659.446 1675.39 660.401 1674.18 661.719 1673.31C663.037 1672.42 664.69 1671.98 666.679 1671.98C668.497 1671.98 670.082 1672.38 671.435 1673.17C672.798 1673.95 673.855 1675.09 674.605 1676.56C675.366 1678.03 675.741 1679.78 675.73 1681.83V1698.5H668.469V1683.12C668.48 1681.51 668.071 1680.26 667.241 1679.36C666.423 1678.46 665.276 1678.01 663.798 1678.01C662.81 1678.01 661.935 1678.22 661.173 1678.64C660.423 1679.06 659.832 1679.68 659.401 1680.48C658.98 1681.28 658.764 1682.24 658.753 1683.36ZM723.491 1675.81H716.026C715.889 1674.85 715.611 1673.99 715.19 1673.24C714.77 1672.48 714.23 1671.83 713.571 1671.3C712.912 1670.76 712.151 1670.35 711.287 1670.07C710.435 1669.78 709.509 1669.64 708.509 1669.64C706.702 1669.64 705.128 1670.09 703.787 1670.99C702.446 1671.87 701.406 1673.17 700.668 1674.88C699.929 1676.57 699.56 1678.62 699.56 1681.05C699.56 1683.53 699.929 1685.62 700.668 1687.32C701.418 1689.01 702.463 1690.29 703.804 1691.15C705.145 1692.02 706.696 1692.45 708.457 1692.45C709.446 1692.45 710.361 1692.32 711.202 1692.06C712.054 1691.8 712.81 1691.41 713.469 1690.91C714.128 1690.4 714.673 1689.78 715.105 1689.06C715.548 1688.33 715.855 1687.5 716.026 1686.57L723.491 1686.6C723.298 1688.2 722.815 1689.75 722.043 1691.24C721.281 1692.72 720.253 1694.04 718.957 1695.21C717.673 1696.37 716.139 1697.29 714.355 1697.97C712.582 1698.64 710.577 1698.98 708.338 1698.98C705.224 1698.98 702.44 1698.27 699.986 1696.86C697.543 1695.45 695.611 1693.41 694.19 1690.74C692.781 1688.07 692.077 1684.84 692.077 1681.05C692.077 1677.24 692.793 1674 694.224 1671.33C695.656 1668.66 697.599 1666.62 700.054 1665.23C702.509 1663.82 705.27 1663.11 708.338 1663.11C710.361 1663.11 712.236 1663.4 713.963 1663.97C715.702 1664.53 717.241 1665.36 718.582 1666.45C719.923 1667.53 721.014 1668.86 721.855 1670.43C722.707 1671.99 723.253 1673.79 723.491 1675.81ZM735.909 1683.36V1698.5H728.648V1663.59H735.705V1676.94H736.011C736.602 1675.39 737.557 1674.18 738.875 1673.31C740.193 1672.42 741.847 1671.98 743.835 1671.98C745.653 1671.98 747.239 1672.38 748.591 1673.17C749.955 1673.95 751.011 1675.09 751.761 1676.56C752.523 1678.03 752.898 1679.78 752.886 1681.83V1698.5H745.625V1683.12C745.636 1681.51 745.227 1680.26 744.398 1679.36C743.58 1678.46 742.432 1678.01 740.955 1678.01C739.966 1678.01 739.091 1678.22 738.33 1678.64C737.58 1679.06 736.989 1679.68 736.557 1680.48C736.136 1681.28 735.92 1682.24 735.909 1683.36ZM766.067 1698.99C764.396 1698.99 762.908 1698.7 761.601 1698.12C760.294 1697.53 759.26 1696.66 758.499 1695.52C757.749 1694.36 757.374 1692.91 757.374 1691.19C757.374 1689.73 757.641 1688.51 758.175 1687.52C758.709 1686.53 759.436 1685.74 760.357 1685.14C761.277 1684.53 762.322 1684.08 763.493 1683.77C764.675 1683.47 765.913 1683.25 767.209 1683.12C768.732 1682.97 769.959 1682.82 770.891 1682.68C771.822 1682.53 772.499 1682.32 772.919 1682.03C773.339 1681.75 773.55 1681.33 773.55 1680.77V1680.67C773.55 1679.59 773.209 1678.76 772.527 1678.16C771.857 1677.57 770.902 1677.28 769.663 1677.28C768.357 1677.28 767.317 1677.57 766.544 1678.15C765.771 1678.72 765.26 1679.43 765.01 1680.3L758.294 1679.75C758.635 1678.16 759.305 1676.78 760.305 1675.62C761.305 1674.45 762.595 1673.56 764.175 1672.93C765.766 1672.3 767.607 1671.98 769.697 1671.98C771.152 1671.98 772.544 1672.15 773.874 1672.49C775.214 1672.83 776.402 1673.36 777.436 1674.07C778.482 1674.79 779.305 1675.71 779.908 1676.84C780.51 1677.95 780.811 1679.28 780.811 1680.84V1698.5H773.925V1694.87H773.72C773.3 1695.69 772.737 1696.41 772.033 1697.03C771.328 1697.65 770.482 1698.13 769.493 1698.48C768.504 1698.82 767.362 1698.99 766.067 1698.99ZM768.146 1693.98C769.214 1693.98 770.158 1693.77 770.976 1693.35C771.794 1692.92 772.436 1692.34 772.902 1691.61C773.368 1690.89 773.601 1690.06 773.601 1689.14V1686.36C773.374 1686.51 773.061 1686.65 772.663 1686.77C772.277 1686.89 771.839 1686.99 771.351 1687.1C770.862 1687.19 770.374 1687.27 769.885 1687.35C769.396 1687.42 768.953 1687.48 768.555 1687.54C767.703 1687.66 766.959 1687.86 766.322 1688.14C765.686 1688.41 765.192 1688.78 764.839 1689.24C764.487 1689.7 764.311 1690.27 764.311 1690.95C764.311 1691.94 764.669 1692.69 765.385 1693.22C766.112 1693.73 767.033 1693.98 768.146 1693.98ZM800.371 1672.32V1677.77H784.604V1672.32H800.371ZM788.183 1666.05H795.445V1690.45C795.445 1691.12 795.547 1691.65 795.751 1692.02C795.956 1692.39 796.24 1692.64 796.604 1692.79C796.979 1692.94 797.411 1693.01 797.899 1693.01C798.24 1693.01 798.581 1692.98 798.922 1692.93C799.263 1692.86 799.524 1692.81 799.706 1692.77L800.848 1698.18C800.484 1698.29 799.973 1698.42 799.314 1698.57C798.655 1698.73 797.854 1698.82 796.911 1698.86C795.161 1698.93 793.626 1698.69 792.308 1698.16C791.001 1697.62 789.984 1696.8 789.257 1695.67C788.53 1694.55 788.172 1693.12 788.183 1691.41V1666.05ZM828.385 1674.88C828.146 1674.05 827.811 1673.31 827.379 1672.68C826.947 1672.03 826.419 1671.48 825.794 1671.04C825.18 1670.59 824.476 1670.24 823.68 1670C822.896 1669.76 822.027 1669.64 821.072 1669.64C819.288 1669.64 817.72 1670.09 816.368 1670.97C815.027 1671.86 813.982 1673.15 813.232 1674.84C812.482 1676.52 812.107 1678.58 812.107 1681.01C812.107 1683.44 812.476 1685.51 813.214 1687.22C813.953 1688.92 814.999 1690.22 816.351 1691.12C817.703 1692.01 819.3 1692.45 821.141 1692.45C822.811 1692.45 824.237 1692.15 825.419 1691.56C826.612 1690.96 827.521 1690.11 828.146 1689.02C828.783 1687.93 829.101 1686.64 829.101 1685.15L830.601 1685.38H821.601V1679.82H836.209V1684.22C836.209 1687.28 835.561 1689.92 834.266 1692.12C832.97 1694.32 831.186 1696.01 828.913 1697.2C826.641 1698.39 824.038 1698.98 821.107 1698.98C817.834 1698.98 814.959 1698.26 812.482 1696.81C810.004 1695.36 808.072 1693.3 806.686 1690.62C805.311 1687.94 804.624 1684.76 804.624 1681.08C804.624 1678.25 805.033 1675.73 805.851 1673.51C806.68 1671.28 807.839 1669.4 809.328 1667.85C810.817 1666.31 812.55 1665.13 814.527 1664.32C816.504 1663.52 818.646 1663.11 820.953 1663.11C822.93 1663.11 824.771 1663.4 826.476 1663.98C828.18 1664.55 829.692 1665.36 831.01 1666.4C832.339 1667.45 833.425 1668.69 834.266 1670.14C835.107 1671.57 835.646 1673.15 835.885 1674.88H828.385ZM841.753 1698.5V1663.59H855.526C858.173 1663.59 860.429 1664.1 862.293 1665.11C864.156 1666.11 865.577 1667.5 866.554 1669.28C867.543 1671.06 868.037 1673.1 868.037 1675.42C868.037 1677.74 867.537 1679.78 866.537 1681.56C865.537 1683.33 864.088 1684.71 862.19 1685.7C860.304 1686.69 858.02 1687.18 855.338 1687.18H846.56V1681.27H854.145C855.565 1681.27 856.736 1681.02 857.656 1680.53C858.588 1680.03 859.281 1679.35 859.736 1678.47C860.202 1677.59 860.435 1676.57 860.435 1675.42C860.435 1674.26 860.202 1673.25 859.736 1672.39C859.281 1671.51 858.588 1670.84 857.656 1670.36C856.724 1669.87 855.543 1669.62 854.111 1669.62H849.134V1698.5H841.753ZM871.501 1669.68V1663.59H900.172V1669.68H889.484V1698.5H882.189V1669.68H871.501ZM937.339 1693.18V1669.05H943.442V1693.18H937.339ZM928.322 1684.16V1678.06H952.459V1684.16H928.322ZM970.847 1663.59H979.949L989.562 1687.05H989.972L999.585 1663.59H1008.69V1698.5H1001.53V1675.78H1001.24L992.205 1698.33H987.33L978.295 1675.69H978.006V1698.5H970.847V1663.59ZM1014.63 1698.5V1672.32H1021.89V1698.5H1014.63ZM1018.28 1668.94C1017.2 1668.94 1016.27 1668.59 1015.5 1667.87C1014.74 1667.14 1014.36 1666.27 1014.36 1665.26C1014.36 1664.26 1014.74 1663.4 1015.5 1662.69C1016.27 1661.96 1017.2 1661.6 1018.28 1661.6C1019.36 1661.6 1020.28 1661.96 1021.04 1662.69C1021.81 1663.4 1022.2 1664.26 1022.2 1665.26C1022.2 1666.27 1021.81 1667.14 1021.04 1667.87C1020.28 1668.59 1019.36 1668.94 1018.28 1668.94ZM1037.36 1698.93C1035.37 1698.93 1033.57 1698.41 1031.95 1697.39C1030.35 1696.36 1029.08 1694.84 1028.14 1692.84C1027.2 1690.83 1026.74 1688.36 1026.74 1685.44C1026.74 1682.44 1027.22 1679.95 1028.19 1677.96C1029.15 1675.96 1030.44 1674.47 1032.04 1673.48C1033.65 1672.48 1035.42 1671.98 1037.34 1671.98C1038.81 1671.98 1040.03 1672.23 1041.01 1672.73C1041.99 1673.22 1042.79 1673.83 1043.39 1674.57C1044.01 1675.3 1044.47 1676.01 1044.79 1676.72H1045.01V1663.59H1052.26V1698.5H1045.1V1694.31H1044.79C1044.45 1695.03 1043.97 1695.76 1043.34 1696.47C1042.73 1697.18 1041.93 1697.76 1040.94 1698.23C1039.96 1698.69 1038.77 1698.93 1037.36 1698.93ZM1039.66 1693.15C1040.83 1693.15 1041.82 1692.83 1042.62 1692.19C1043.44 1691.55 1044.07 1690.64 1044.5 1689.48C1044.94 1688.32 1045.16 1686.97 1045.16 1685.41C1045.16 1683.85 1044.95 1682.5 1044.52 1681.35C1044.09 1680.2 1043.46 1679.32 1042.64 1678.69C1041.82 1678.07 1040.83 1677.76 1039.66 1677.76C1038.47 1677.76 1037.46 1678.08 1036.64 1678.73C1035.82 1679.37 1035.2 1680.27 1034.78 1681.42C1034.36 1682.57 1034.15 1683.9 1034.15 1685.41C1034.15 1686.93 1034.36 1688.28 1034.78 1689.45C1035.22 1690.61 1035.84 1691.52 1036.64 1692.18C1037.46 1692.82 1038.47 1693.15 1039.66 1693.15ZM1083.45 1663.59H1090.74V1687.93C1090.74 1690.18 1090.24 1692.14 1089.23 1693.8C1088.23 1695.45 1086.84 1696.73 1085.05 1697.63C1083.27 1698.53 1081.19 1698.98 1078.83 1698.98C1076.73 1698.98 1074.82 1698.61 1073.1 1697.87C1071.4 1697.12 1070.05 1695.98 1069.05 1694.46C1068.05 1692.93 1067.55 1691 1067.56 1688.68H1074.91C1074.93 1689.6 1075.12 1690.39 1075.47 1691.05C1075.84 1691.7 1076.33 1692.2 1076.95 1692.55C1077.59 1692.89 1078.34 1693.06 1079.2 1693.06C1080.11 1693.06 1080.88 1692.87 1081.51 1692.48C1082.14 1692.09 1082.63 1691.51 1082.95 1690.74C1083.28 1689.98 1083.45 1689.05 1083.45 1687.93V1663.59ZM1108.54 1699.01C1105.89 1699.01 1103.6 1698.45 1101.67 1697.32C1099.75 1696.19 1098.27 1694.61 1097.22 1692.59C1096.18 1690.55 1095.65 1688.19 1095.65 1685.51C1095.65 1682.81 1096.18 1680.44 1097.22 1678.42C1098.27 1676.39 1099.75 1674.81 1101.67 1673.68C1103.6 1672.55 1105.89 1671.98 1108.54 1671.98C1111.19 1671.98 1113.47 1672.55 1115.39 1673.68C1117.32 1674.81 1118.81 1676.39 1119.86 1678.42C1120.9 1680.44 1121.43 1682.81 1121.43 1685.51C1121.43 1688.19 1120.9 1690.55 1119.86 1692.59C1118.81 1694.61 1117.32 1696.19 1115.39 1697.32C1113.47 1698.45 1111.19 1699.01 1108.54 1699.01ZM1108.57 1693.39C1109.78 1693.39 1110.78 1693.05 1111.59 1692.36C1112.4 1691.67 1113.01 1690.73 1113.41 1689.53C1113.84 1688.34 1114.05 1686.98 1114.05 1685.46C1114.05 1683.94 1113.84 1682.58 1113.41 1681.39C1113.01 1680.19 1112.4 1679.25 1111.59 1678.56C1110.78 1677.86 1109.78 1677.52 1108.57 1677.52C1107.36 1677.52 1106.34 1677.86 1105.51 1678.56C1104.69 1679.25 1104.07 1680.19 1103.65 1681.39C1103.24 1682.58 1103.03 1683.94 1103.03 1685.46C1103.03 1686.98 1103.24 1688.34 1103.65 1689.53C1104.07 1690.73 1104.69 1691.67 1105.51 1692.36C1106.34 1693.05 1107.36 1693.39 1108.57 1693.39ZM1142.94 1687.35V1672.32H1150.2V1698.5H1143.23V1693.74H1142.95C1142.36 1695.28 1141.38 1696.51 1140.01 1697.44C1138.64 1698.37 1136.98 1698.84 1135.01 1698.84C1133.26 1698.84 1131.72 1698.44 1130.39 1697.65C1129.06 1696.85 1128.02 1695.72 1127.27 1694.26C1126.53 1692.79 1126.16 1691.03 1126.15 1688.99V1672.32H1133.41V1687.69C1133.42 1689.24 1133.84 1690.46 1134.65 1691.36C1135.47 1692.26 1136.57 1692.7 1137.94 1692.7C1138.82 1692.7 1139.64 1692.51 1140.4 1692.11C1141.16 1691.7 1141.77 1691.1 1142.24 1690.3C1142.72 1689.51 1142.95 1688.52 1142.94 1687.35ZM1156.01 1698.5V1672.32H1163.05V1676.89H1163.32C1163.8 1675.26 1164.6 1674.03 1165.72 1673.2C1166.85 1672.36 1168.14 1671.94 1169.61 1671.94C1169.97 1671.94 1170.37 1671.97 1170.79 1672.01C1171.21 1672.06 1171.58 1672.12 1171.89 1672.2V1678.64C1171.55 1678.54 1171.08 1678.45 1170.48 1678.37C1169.88 1678.29 1169.33 1678.25 1168.83 1678.25C1167.76 1678.25 1166.8 1678.48 1165.96 1678.95C1165.13 1679.4 1164.47 1680.04 1163.98 1680.86C1163.51 1681.68 1163.27 1682.62 1163.27 1683.69V1698.5H1156.01ZM1182.91 1683.36V1698.5H1175.65V1672.32H1182.57V1676.94H1182.88C1183.45 1675.41 1184.43 1674.21 1185.79 1673.32C1187.15 1672.43 1188.81 1671.98 1190.75 1671.98C1192.57 1671.98 1194.15 1672.38 1195.51 1673.17C1196.86 1673.97 1197.91 1675.1 1198.66 1676.58C1199.41 1678.05 1199.78 1679.8 1199.78 1681.83V1698.5H1192.52V1683.12C1192.53 1681.52 1192.13 1680.27 1191.3 1679.38C1190.47 1678.47 1189.32 1678.01 1187.87 1678.01C1186.89 1678.01 1186.03 1678.22 1185.28 1678.64C1184.54 1679.06 1183.96 1679.68 1183.54 1680.48C1183.13 1681.28 1182.92 1682.24 1182.91 1683.36ZM1217.44 1699.01C1214.75 1699.01 1212.43 1698.47 1210.48 1697.38C1208.55 1696.27 1207.06 1694.72 1206.02 1692.7C1204.97 1690.68 1204.45 1688.29 1204.45 1685.53C1204.45 1682.84 1204.97 1680.47 1206.02 1678.44C1207.06 1676.4 1208.54 1674.82 1210.43 1673.68C1212.34 1672.55 1214.58 1671.98 1217.15 1671.98C1218.88 1671.98 1220.48 1672.26 1221.97 1672.81C1223.47 1673.36 1224.78 1674.18 1225.89 1675.28C1227.02 1676.39 1227.89 1677.77 1228.52 1679.44C1229.14 1681.1 1229.46 1683.05 1229.46 1685.27V1687.27H1207.35V1682.77H1222.62C1222.62 1681.72 1222.39 1680.8 1221.94 1679.99C1221.48 1679.18 1220.85 1678.55 1220.05 1678.1C1219.25 1677.63 1218.33 1677.4 1217.27 1677.4C1216.17 1677.4 1215.19 1677.65 1214.34 1678.16C1213.5 1678.66 1212.84 1679.34 1212.36 1680.19C1211.88 1681.03 1211.64 1681.97 1211.63 1683.01V1687.28C1211.63 1688.58 1211.87 1689.7 1212.34 1690.64C1212.83 1691.59 1213.52 1692.31 1214.4 1692.82C1215.29 1693.34 1216.34 1693.59 1217.56 1693.59C1218.37 1693.59 1219.1 1693.48 1219.77 1693.25C1220.44 1693.02 1221.02 1692.68 1221.5 1692.23C1221.97 1691.77 1222.34 1691.22 1222.59 1690.56L1229.3 1691C1228.96 1692.61 1228.26 1694.02 1227.21 1695.23C1226.16 1696.42 1224.81 1697.35 1223.15 1698.02C1221.5 1698.68 1219.6 1699.01 1217.44 1699.01ZM1237.97 1708.32C1237.05 1708.32 1236.19 1708.24 1235.38 1708.1C1234.59 1707.96 1233.93 1707.78 1233.41 1707.57L1235.04 1702.15C1235.89 1702.41 1236.66 1702.55 1237.34 1702.57C1238.04 1702.6 1238.63 1702.44 1239.13 1702.1C1239.64 1701.76 1240.06 1701.18 1240.38 1700.36L1240.8 1699.25L1231.41 1672.32H1239.05L1244.47 1691.55H1244.74L1250.21 1672.32H1257.9L1247.72 1701.33C1247.24 1702.74 1246.57 1703.97 1245.73 1705.01C1244.9 1706.07 1243.85 1706.88 1242.58 1707.45C1241.3 1708.03 1239.77 1708.32 1237.97 1708.32Z" fill="#767676"/>
<defs>
<clipPath id="clip0_855_5343">
<rect x="321.5" y="378.5" width="957" height="1024" rx="228" fill="white"/>
</clipPath>
</defs>
</svg>
